# xmcd CD database file
#
# Track frame offsets:
#	150
#	13645
#	27045
#	46304
#	59637
#	74719
#	88469
#	99077
#	119233
#	131140
#	146524
#	160252
#
# Disc length: 2285 seconds
#
# Revision: 0
# Processed by: cddbd v1.5.2PL0 Copyright (c) Steve Scherf et al.
# Submitted via: CDex 1.78
#
DISCID=b208eb0c
DTITLE=Kim Hoorweg and Robin Nolan Trio - The Boulevard of Broken Dreams
DYEAR=2015
DGENRE=Jazz
TTITLE0=Mood Indigo
TTITLE1=The Boulevard of Broken Dreams
TTITLE2=If I Didn't Care
TTITLE3=Quiet Whiskey
TTITLE4=When You're Smiling
TTITLE5=Si Tu Vois Ma Mere
TTITLE6=Les Yeux Noirs
TTITLE7=I Ain't Got Nothing but the Blues
TTITLE8=It's a Sin to Tell a Lie
TTITLE9=Granada
TTITLE10=When Your Lover Has Gone
TTITLE11=Solitude
EXTD=YEAR: 2015
EXTT0=
EXTT1=
EXTT2=
EXTT3=
EXTT4=
EXTT5=
EXTT6=
EXTT7=
EXTT8=
EXTT9=
EXTT10=
EXTT11=
PLAYORDER=
